# xmcd
#
# Track frame offsets:
#	150
#	14100
#	23409
#	37516
#	50784
#	65247
#	78400
#	98841
#	110516
#	125244
#	142781
#	158234
#
# Disc length: 2308
#
# Revision: 2
# Processed by: cddbd v1.5.1PL0 Copyright (c) Steve Scherf et al.
# Submitted via: EasyCDDAExtractor 7.0.5.4
# Normalized: r1:DSETVAR1
#
DISCID=9d09020c
DTITLE=Various Artist - Country Hits
DYEAR=1900
DGENRE=Country
TTITLE0=Tracy Bryd - Watermelon Crawl
TTITLE1=Charlie Pride - Kiss An Angel Good Morning
TTITLE2=Doug Stone - Father's Love
TTITLE3=Jo Dee Messina - Except For Monday
TTITLE4=John Michael Montgomery - Life's A Dance
TTITLE5=Tim McGraw - Straight Tequila Night
TTITLE6=Joe Diffie - John Deere Green
TTITLE7=Johnny Cash - Ring Of Fire
TTITLE8=The Judds - Mamas He's Crazy
TTITLE9=Joe Nichols - Brokenheartsville
TTITLE10=Toby Keith and Willie Nelson - Beer For My Horses
TTITLE11=George Strait - Check Yes Or No
EXTD=
EXTT0=
EXTT1=
EXTT2=
EXTT3=
EXTT4=
EXTT5=
EXTT6=
EXTT7=
EXTT8=
EXTT9=
EXTT10=
EXTT11=
PLAYORDER=
